<svg width="129" height="23" viewBox="0 0 129 23" fill="none" xmlns="http://www.w3.org/2000/svg">
<path d="M6.29403 22L0.546875 1.63636H4.5142L8.18324 16.6009H8.37216L12.2898 1.63636H15.8991L19.8267 16.6108H20.0057L23.6747 1.63636H27.642L21.8949 22H18.2557L14.179 7.71165H14.0199L9.93324 22H6.29403ZM34.3042 22.2983C32.8127 22.2983 31.5201 21.9702 30.4263 21.3139C29.3326 20.6577 28.4841 19.7396 27.8809 18.5597C27.2843 17.3797 26.986 16.0009 26.986 14.4233C26.986 12.8456 27.2843 11.4635 27.8809 10.277C28.4841 9.09043 29.3326 8.16903 30.4263 7.51278C31.5201 6.85653 32.8127 6.52841 34.3042 6.52841C35.7957 6.52841 37.0883 6.85653 38.182 7.51278C39.2758 8.16903 40.1209 9.09043 40.7175 10.277C41.3207 11.4635 41.6224 12.8456 41.6224 14.4233C41.6224 16.0009 41.3207 17.3797 40.7175 18.5597C40.1209 19.7396 39.2758 20.6577 38.182 21.3139C37.0883 21.9702 35.7957 22.2983 34.3042 22.2983ZM34.3241 19.4148C35.1328 19.4148 35.8089 19.1927 36.3525 18.7486C36.896 18.2978 37.3004 17.6946 37.5655 16.9389C37.8373 16.1832 37.9732 15.3414 37.9732 14.4134C37.9732 13.4787 37.8373 12.6335 37.5655 11.8778C37.3004 11.1155 36.896 10.509 36.3525 10.0582C35.8089 9.60748 35.1328 9.3821 34.3241 9.3821C33.4955 9.3821 32.8061 9.60748 32.2559 10.0582C31.7123 10.509 31.3046 11.1155 31.0329 11.8778C30.7677 12.6335 30.6351 13.4787 30.6351 14.4134C30.6351 15.3414 30.7677 16.1832 31.0329 16.9389C31.3046 17.6946 31.7123 18.2978 32.2559 18.7486C32.8061 19.1927 33.4955 19.4148 34.3241 19.4148ZM43.8374 22V6.72727H47.3275V9.27273H47.4865C47.765 8.3911 48.2422 7.71165 48.9184 7.23438C49.6011 6.75047 50.38 6.50852 51.255 6.50852C51.4539 6.50852 51.6759 6.51847 51.9212 6.53835C52.1731 6.55161 52.3819 6.57481 52.5476 6.60795V9.91903C52.3952 9.866 52.1532 9.8196 51.8218 9.77983C51.497 9.73343 51.1821 9.71023 50.8772 9.71023C50.2209 9.71023 49.631 9.85275 49.1073 10.1378C48.5902 10.4162 48.1826 10.804 47.8843 11.3011C47.586 11.7983 47.4368 12.3717 47.4368 13.0213V22H43.8374ZM59.1377 22.2685C57.9379 22.2685 56.864 21.9602 55.9161 21.3438C54.9682 20.7273 54.2191 19.8324 53.6689 18.6591C53.1187 17.4858 52.8436 16.0606 52.8436 14.3835C52.8436 12.6866 53.122 11.2547 53.6789 10.0881C54.2423 8.91477 55.0013 8.02983 55.9559 7.43324C56.9104 6.83002 57.9743 6.52841 59.1476 6.52841C60.0425 6.52841 60.7783 6.68087 61.355 6.98579C61.9317 7.28409 62.3891 7.64536 62.7272 8.0696C63.0652 8.48722 63.3271 8.88163 63.5127 9.25284H63.6618V1.63636H67.2712V22H63.7314V19.5938H63.5127C63.3271 19.965 63.0586 20.3594 62.7073 20.777C62.3559 21.188 61.8919 21.5393 61.3152 21.831C60.7385 22.1226 60.0127 22.2685 59.1377 22.2685ZM60.1419 19.3153C60.9042 19.3153 61.5539 19.1098 62.0908 18.6989C62.6277 18.2812 63.0354 17.7012 63.3138 16.9588C63.5922 16.2164 63.7314 15.3513 63.7314 14.3636C63.7314 13.3759 63.5922 12.5175 63.3138 11.7884C63.042 11.0592 62.6377 10.4924 62.1007 10.0881C61.5704 9.68371 60.9175 9.48153 60.1419 9.48153C59.3398 9.48153 58.6703 9.69034 58.1334 10.108C57.5965 10.5256 57.1921 11.1023 56.9203 11.8381C56.6486 12.5739 56.5127 13.4157 56.5127 14.3636C56.5127 15.3182 56.6486 16.17 56.9203 16.919C57.1987 17.6615 57.6064 18.2481 58.1434 18.679C58.6869 19.1032 59.3531 19.3153 60.1419 19.3153ZM76.9287 22.2983C75.4041 22.2983 74.0949 21.9635 73.0012 21.294C71.914 20.6245 71.0755 19.6998 70.4855 18.5199C69.9022 17.3333 69.6105 15.9678 69.6105 14.4233C69.6105 12.8722 69.9088 11.5033 70.5054 10.3168C71.102 9.12358 71.9439 8.19555 73.031 7.53267C74.1247 6.86316 75.4173 6.52841 76.9088 6.52841C78.1484 6.52841 79.2455 6.7571 80.2 7.21449C81.1612 7.66525 81.9268 8.30492 82.4969 9.13352C83.067 9.95549 83.3918 10.9167 83.4713 12.017H80.031C79.8918 11.2812 79.5603 10.6681 79.0367 10.1776C78.5196 9.6804 77.8269 9.43182 76.9585 9.43182C76.2227 9.43182 75.5764 9.63068 75.0196 10.0284C74.4628 10.4195 74.0286 10.983 73.7171 11.7188C73.4121 12.4545 73.2597 13.3362 73.2597 14.3636C73.2597 15.4044 73.4121 16.2992 73.7171 17.0483C74.022 17.7907 74.4495 18.3641 74.9997 18.7685C75.5565 19.1662 76.2095 19.3651 76.9585 19.3651C77.4888 19.3651 77.9628 19.2656 78.3804 19.0668C78.8047 18.8613 79.1593 18.5663 79.4443 18.1818C79.7294 17.7973 79.9249 17.33 80.031 16.7798H83.4713C83.3851 17.8603 83.067 18.8182 82.5168 19.6534C81.9666 20.482 81.2175 21.1316 80.2696 21.6023C79.3217 22.0663 78.2081 22.2983 76.9287 22.2983ZM85.5869 22V6.72727H89.077V9.27273H89.2361C89.5145 8.3911 89.9918 7.71165 90.6679 7.23438C91.3507 6.75047 92.1295 6.50852 93.0045 6.50852C93.2034 6.50852 93.4255 6.51847 93.6707 6.53835C93.9226 6.55161 94.1314 6.57481 94.2972 6.60795V9.91903C94.1447 9.866 93.9027 9.8196 93.5713 9.77983C93.2465 9.73343 92.9316 9.71023 92.6267 9.71023C91.9705 9.71023 91.3805 9.85275 90.8568 10.1378C90.3398 10.4162 89.9321 10.804 89.6338 11.3011C89.3355 11.7983 89.1864 12.3717 89.1864 13.0213V22H85.5869ZM99.9699 22.3082C99.0021 22.3082 98.1305 22.1359 97.3549 21.7912C96.5859 21.4399 95.9761 20.9228 95.5253 20.2401C95.0812 19.5573 94.8591 18.7154 94.8591 17.7145C94.8591 16.8527 95.0182 16.1402 95.3364 15.5767C95.6546 15.0133 96.0888 14.5625 96.639 14.2244C97.1892 13.8864 97.809 13.6312 98.4984 13.4588C99.1944 13.2798 99.9136 13.1506 100.656 13.071C101.551 12.9782 102.277 12.8954 102.834 12.8224C103.39 12.7429 103.795 12.6236 104.047 12.4645C104.305 12.2988 104.434 12.0436 104.434 11.6989V11.6392C104.434 10.8902 104.212 10.3101 103.768 9.89915C103.324 9.48816 102.684 9.28267 101.849 9.28267C100.968 9.28267 100.268 9.47491 99.7512 9.85938C99.2408 10.2438 98.8961 10.6979 98.7171 11.2216L95.3563 10.7443C95.6215 9.81629 96.059 9.04072 96.6688 8.41761C97.2787 7.78788 98.0244 7.31723 98.906 7.00568C99.7877 6.6875 100.762 6.52841 101.829 6.52841C102.565 6.52841 103.298 6.61458 104.027 6.78693C104.756 6.95928 105.422 7.24432 106.025 7.64204C106.629 8.03314 107.112 8.56676 107.477 9.2429C107.848 9.91903 108.034 10.7642 108.034 11.7784V22H104.574V19.902H104.454C104.236 20.3262 103.927 20.724 103.53 21.0952C103.139 21.4598 102.645 21.7547 102.048 21.9801C101.458 22.1989 100.765 22.3082 99.9699 22.3082ZM100.905 19.6634C101.627 19.6634 102.254 19.5208 102.784 19.2358C103.314 18.9441 103.722 18.5597 104.007 18.0824C104.299 17.6051 104.444 17.0848 104.444 16.5213V14.7216C104.332 14.8144 104.139 14.9006 103.868 14.9801C103.603 15.0597 103.304 15.1293 102.973 15.1889C102.641 15.2486 102.313 15.3016 101.988 15.348C101.664 15.3944 101.382 15.4342 101.143 15.4673C100.606 15.5402 100.126 15.6596 99.7015 15.8253C99.2772 15.991 98.9425 16.223 98.6972 16.5213C98.452 16.813 98.3293 17.1908 98.3293 17.6548C98.3293 18.3177 98.5713 18.8182 99.0552 19.1562C99.5391 19.4943 100.156 19.6634 100.905 19.6634ZM118.549 6.72727V9.51136H109.521V6.72727H118.549ZM111.778 22V5.28551C111.778 4.25805 111.99 3.40293 112.414 2.72017C112.845 2.0374 113.422 1.52699 114.144 1.18892C114.867 0.850851 115.669 0.681817 116.55 0.681817C117.174 0.681817 117.727 0.731533 118.211 0.830966C118.695 0.930397 119.053 1.01989 119.285 1.09943L118.569 3.88352C118.416 3.83712 118.224 3.79072 117.992 3.74432C117.76 3.69129 117.502 3.66477 117.217 3.66477C116.547 3.66477 116.073 3.82718 115.795 4.15199C115.523 4.47017 115.387 4.92756 115.387 5.52415V22H111.778ZM128.154 6.72727V9.51136H119.374V6.72727H128.154ZM121.542 3.06818H125.142V17.4062C125.142 17.8902 125.214 18.2614 125.36 18.5199C125.513 18.7718 125.712 18.9441 125.957 19.0369C126.202 19.1297 126.474 19.1761 126.772 19.1761C126.998 19.1761 127.203 19.1596 127.389 19.1264C127.581 19.0933 127.727 19.0634 127.826 19.0369L128.433 21.8509C128.24 21.9171 127.965 21.9901 127.607 22.0696C127.256 22.1491 126.825 22.1955 126.315 22.2088C125.413 22.2353 124.601 22.0994 123.879 21.8011C123.156 21.4962 122.583 21.0256 122.159 20.3892C121.741 19.7528 121.535 18.9574 121.542 18.0028V3.06818Z" fill="black"/>
</svg>
